<?xml version="1.0" encoding="UTF-8"?>
<svg version="1.1" xmlns="http://www.w3.org/2000/svg" width="1080" height="1080">
<path d="M0 0 C356.4 0 712.8 0 1080 0 C1080 356.4 1080 712.8 1080 1080 C723.6 1080 367.2 1080 0 1080 C0 723.6 0 367.2 0 0 Z " fill="#F9F9F9" transform="translate(0,0)"/>
<path d="M0 0 C18.15 0 36.3 0 55 0 C55.66 7.26 56.32 14.52 57 22 C61.8424621 53.10350656 71.7858254 81.67866098 97 102 C111.63347464 112.34128527 128.1796828 115.59009023 145.875 115.5 C147.84400269 115.49141968 147.84400269 115.49141968 149.8527832 115.48266602 C164.47751698 115.21353249 176.23513812 112.12691412 188 103 C188.71542969 102.45085937 189.43085937 101.90171875 190.16796875 101.3359375 C194.65389586 97.39665141 197.54488719 92.78199197 200.3125 87.5625 C200.63822998 86.973479 200.96395996 86.38445801 201.29956055 85.77758789 C209.10024481 69.99971493 207.53492378 50.5520173 207.66955566 33.48254395 C207.69979961 30.03576254 207.74602308 26.58919334 207.79101562 23.14257812 C207.87753367 16.42837544 207.93820215 9.7146556 208 3 C190.84 3 173.68 3 156 3 C156 2.01 156 1.02 156 0 C204.18 0 252.36 0 302 0 C302 0.99 302 1.98 302 3 C287.81 3 273.62 3 259 3 C259.0928125 10.1775 259.0928125 10.1775 259.1875 17.5 C259.23275815 28.69675043 259.02769702 39.1344744 256 50 C255.83371094 50.64356445 255.66742187 51.28712891 255.49609375 51.95019531 C251.50475938 67.28726718 244.69932937 80.23454528 234 92 C233.39929688 92.69351563 232.79859375 93.38703125 232.1796875 94.1015625 C213.98238809 113.87438567 184.0119993 123.27684563 158 125 C153.20743709 125.15777701 148.41989445 125.18499221 143.625 125.1875 C142.40039062 125.19974609 141.17578125 125.21199219 139.9140625 125.22460938 C128.54579533 125.24267336 117.75148759 124.03954 107 120.25 C106.23655273 119.98687012 105.47310547 119.72374023 104.68652344 119.45263672 C82.42339257 111.6096244 63.96976315 99.20889062 47 83 C46.13375 82.18660156 45.2675 81.37320313 44.375 80.53515625 C23.16859171 60.09085325 7.85174712 31.26628964 0 3 C0 2.01 0 1.02 0 0 Z " fill="#020202" transform="translate(542,583)"/>
<path d="M0 0 C15.84 0 31.68 0 48 0 C48.12032643 26.85061958 48.12032643 26.85061958 48.14648438 38.36914062 C48.16436011 46.20326904 48.18541944 54.03729143 48.22631836 61.87133789 C48.25911289 68.19317722 48.27689518 74.51490272 48.28463173 80.8368206 C48.29013934 83.23873115 48.30089351 85.64063606 48.31719017 88.04249763 C48.47668948 112.54295077 46.20960642 135.90375206 28.6875 154.8125 C11.44525198 170.80925832 -13.33212638 175.04036503 -36.05859375 174.3125 C-53.109847 173.41354483 -66.53730373 165.22216613 -78 153 C-80.03221041 150.44729026 -81.59306715 147.93728086 -83 145 C-83.8971875 143.2984375 -83.8971875 143.2984375 -84.8125 141.5625 C-87.60355146 133.41521105 -87.54552537 122.2060852 -84 114.3125 C-81.12584544 109.68059803 -78.2005155 105.95883523 -73 104 C-65.21728429 103.06355595 -57.88538139 102.72360928 -51 107 C-45.8446989 111.61419125 -42.51875875 116.27353137 -41.75390625 123.2421875 C-41.3514567 131.07166052 -43.6699724 137.30409415 -47.8125 143.875 C-52.25045326 148.18615459 -55.78778191 150.24033063 -61.9375 150.25 C-63.29274851 150.18664949 -64.64776973 150.11038614 -66 150 C-60.98206058 157.52690913 -52.04979715 161.97561391 -43.25 163.75390625 C-32.37762926 164.9430718 -21.58003028 164.9587902 -12.6875 157.9375 C-2.0027978 147.55438213 -0.94897127 132.22328283 -0.61969471 118.11474609 C-0.53678973 112.25342493 -0.50442442 106.39257814 -0.49388909 100.53077316 C-0.48439278 96.98602605 -0.45818217 93.44139949 -0.43388367 89.89672852 C-0.39052018 83.21075114 -0.36178944 76.52479755 -0.33856028 69.83872318 C-0.3113451 62.2156938 -0.26744502 54.59278753 -0.22227156 46.96984673 C-0.12985807 31.31328113 -0.06018238 15.65672771 0 0 Z " fill="#737373" transform="translate(376,583)"/>
<path d="M0 0 C2.37576792 1.88274644 4.70444275 3.79693564 6.9921875 5.78515625 C10.84748359 4.21400445 13.16870266 1.76694703 16.01953125 -1.22265625 C16.98589538 -2.21916984 17.95270588 -3.21525071 18.91992188 -4.2109375 C20.43048398 -5.77735521 21.93679851 -7.34733182 23.43530273 -8.92529297 C24.88973758 -10.45229491 26.35944533 -11.96317984 27.83203125 -13.47265625 C28.70206787 -14.38160645 29.57210449 -15.29055664 30.46850586 -16.22705078 C32.9921875 -18.21484375 32.9921875 -18.21484375 35.68969727 -18.63623047 C37.9921875 -18.21484375 37.9921875 -18.21484375 39.9921875 -16.21484375 C40.18597029 -13.09106948 40.25428895 -10.05621901 40.23510742 -6.93164062 C40.23700577 -5.96895767 40.23890411 -5.00627472 40.24085999 -4.01441956 C40.24457563 -0.82072906 40.2338523 2.37273584 40.22265625 5.56640625 C40.22146478 7.77836073 40.22101122 9.99031572 40.2212677 12.20227051 C40.21970147 16.84272418 40.21140115 21.48310085 40.19799805 26.12353516 C40.18100803 32.08255336 40.17718363 38.04148685 40.17794323 44.00052643 C40.17767176 48.56944594 40.17219427 53.13834681 40.16494179 57.70726013 C40.16175149 59.90498208 40.15978687 62.10270616 40.15904808 64.3004303 C40.15688834 67.36764147 40.148152 70.43476143 40.13745117 73.50195312 C40.13813095 74.87503883 40.13813095 74.87503883 40.13882446 76.27586365 C40.10666354 82.55620417 40.10666354 82.55620417 38.9921875 84.78515625 C36.66479492 84.67333984 36.66479492 84.67333984 33.9921875 83.78515625 C32.48168945 81.12744141 32.48168945 81.12744141 31.23046875 77.57421875 C30.9983519 76.93860016 30.76623505 76.30298157 30.52708435 75.64810181 C30.0293914 74.28333322 29.54004127 72.91549902 29.05822754 71.54504395 C27.79579504 67.96839044 26.46023403 64.41960941 25.12109375 60.87109375 C24.85678558 60.16879639 24.59247742 59.46649902 24.32015991 58.74291992 C14.03534966 31.74563963 -3.29404359 9.25327406 -29.71728516 -3.22802734 C-49.17463744 -11.61074083 -76.34862256 -14.46795107 -96.73046875 -7.609375 C-106.95800901 -3.25748958 -116.6882912 1.25397669 -125.0078125 8.78515625 C-125.9978125 9.63787109 -125.9978125 9.63787109 -127.0078125 10.5078125 C-154.78562745 36.06123211 -158.03828468 77.744728 -161.0078125 112.78515625 C-179.4878125 112.78515625 -197.9678125 112.78515625 -217.0078125 112.78515625 C-215.72097835 105.06415137 -214.55507352 98.42312605 -211.9453125 91.22265625 C-211.64149658 90.37477539 -211.33768066 89.52689453 -211.0246582 88.65332031 C-195.63369145 46.79980791 -166.43547832 10.61264917 -125.671875 -8.5390625 C-124.4510823 -9.09888225 -123.22976126 -9.65755191 -122.0078125 -10.21484375 C-120.98429688 -10.69566406 -119.96078125 -11.17648437 -118.90625 -11.671875 C-82.57144294 -27.88052882 -32.25843539 -23.75393878 0 0 Z " fill="#020202" transform="translate(757.0078125,383.21484375)"/>
<path d="M0 0 C43.56 0 87.12 0 132 0 C132 2.64 132 5.28 132 8 C119.46 8 106.92 8 94 8 C94 46.94 94 85.88 94 126 C78.16 126 62.32 126 46 126 C46 87.06 46 48.12 46 8 C30.82 8 15.64 8 0 8 C0 5.36 0 2.72 0 0 Z " fill="#737373" transform="translate(330,370)"/>
<path d="M0 0 C4.45531067 2.11041032 7.15810959 4.39527396 9 9 C9.71062194 13.73747957 9.47089401 17.05821199 7.3125 21.375 C4.25059252 24.85067876 1.71728478 26.76707042 -2.9375 27.3984375 C-3.948125 27.39070312 -4.95875 27.38296875 -6 27.375 C-7.010625 27.38273438 -8.02125 27.39046875 -9.0625 27.3984375 C-13.1227334 26.84771435 -15.80536486 25.47494059 -18.3984375 22.2734375 C-20.75000169 17.70199671 -21.53856716 14.15908716 -20.68359375 9.046875 C-17.5347807 -0.38157092 -8.35323788 -0.89498977 0 0 Z " fill="#5C5C5C" transform="translate(779,524)"/>
<path d="M0 0 C4.45531067 2.11041032 7.15810959 4.39527396 9 9 C9.70599788 13.70665253 9.45316426 17.0588127 7.375 21.375 C3.25415474 25.92961844 -0.40724288 27.19077182 -6.4375 27.5625 C-11.48085205 27.42507896 -14.19314967 26.24012744 -17.69140625 22.6328125 C-20.65821927 18.93093835 -21.17621439 16.1587808 -20.9375 11.5 C-20.30905296 6.94943766 -18.65029757 4.86809095 -15 2 C-10.32198701 -1.11867533 -5.47651278 -0.58676923 0 0 Z " fill="#0D0D0D" transform="translate(333,524)"/>
<path d="M0 0 C6 0 6 0 7.47558594 1.36108398 C7.80848633 1.98313721 8.14138672 2.60519043 8.484375 3.24609375 C8.86207031 3.91833984 9.23976563 4.59058594 9.62890625 5.28320312 C9.99886719 5.99412109 10.36882813 6.70503906 10.75 7.4375 C13.07599524 12.47846549 13.07599524 12.47846549 17 16 C17.20625 15.21625 17.4125 14.4325 17.625 13.625 C18.82873488 10.45151712 20.13451223 7.602234 21.75 4.625 C22.21921875 3.75101563 22.6884375 2.87703125 23.171875 1.9765625 C23.77515625 1.32429687 24.3784375 0.67203125 25 0 C26.98 0 28.96 0 31 0 C31 8.91 31 17.82 31 27 C29.02 27 27.04 27 25 27 C24.67 22.38 24.34 17.76 24 13 C21.03 18.445 21.03 18.445 18 24 C13 23 13 23 11.19921875 20.71484375 C9.79947917 18.14322917 8.39973958 15.57161458 7 13 C6.67 17.62 6.34 22.24 6 27 C4.02 27 2.04 27 0 27 C0 18.09 0 9.18 0 0 Z " fill="#5B5B5B" transform="translate(640,524)"/>
<path d="M0 0 C2.31 0 4.62 0 7 0 C11.59438179 8.83127565 15.61930336 17.6212932 19 27 C16.69 27 14.38 27 12 27 C11.34 25.35 10.68 23.7 10 22 C5.71 21.67 1.42 21.34 -3 21 C-3.66 22.98 -4.32 24.96 -5 27 C-6.98 27 -8.96 27 -11 27 C-9.00667932 20.60703339 -6.58525386 14.52953606 -3.8125 8.4375 C-3.44447266 7.61958984 -3.07644531 6.80167969 -2.69726562 5.95898438 C-1.80204987 3.97090782 -0.9015835 1.98519692 0 0 Z " fill="#5B5B5B" transform="translate(605,524)"/>
<path d="M0 0 C2.31 0 4.62 0 7 0 C8.8392812 4.12237348 10.67041342 8.24831578 12.5 12.375 C13.02464844 13.550625 13.54929687 14.72625 14.08984375 15.9375 C14.83427734 17.61972656 14.83427734 17.61972656 15.59375 19.3359375 C16.05458984 20.37282715 16.51542969 21.4097168 16.99023438 22.47802734 C18 25 18 25 18 27 C16.02 27 14.04 27 12 27 C11.34 25.02 10.68 23.04 10 21 C3.565 21.495 3.565 21.495 -3 22 C-3.99 24.475 -3.99 24.475 -5 27 C-7.31 27 -9.62 27 -12 27 C-10.56554407 23.62369826 -9.12689105 20.24920041 -7.6875 16.875 C-7.28337891 15.92367187 -6.87925781 14.97234375 -6.46289062 13.9921875 C-4.43840726 9.25193377 -2.37908796 4.57339238 0 0 Z " fill="#5B5B5B" transform="translate(725,524)"/>
<path d="M0 0 C2.31 0 4.62 0 7 0 C8.8392812 4.12237348 10.67041342 8.24831578 12.5 12.375 C13.02464844 13.550625 13.54929687 14.72625 14.08984375 15.9375 C14.83427734 17.61972656 14.83427734 17.61972656 15.59375 19.3359375 C16.05458984 20.37282715 16.51542969 21.4097168 16.99023438 22.47802734 C18 25 18 25 18 27 C16.02 27 14.04 27 12 27 C11.34 25.02 10.68 23.04 10 21 C3.565 21.495 3.565 21.495 -3 22 C-3.99 24.475 -3.99 24.475 -5 27 C-7.31 27 -9.62 27 -12 27 C-10.56554407 23.62369826 -9.12689105 20.24920041 -7.6875 16.875 C-7.28337891 15.92367187 -6.87925781 14.97234375 -6.46289062 13.9921875 C-4.43840726 9.25193377 -2.37908796 4.57339238 0 0 Z " fill="#0C0C0C" transform="translate(495,524)"/>
<path d="M0 0 C1.98 0 3.96 0 6 0 C6 3.63 6 7.26 6 11 C10.29 11 14.58 11 19 11 C19 7.37 19 3.74 19 0 C20.98 0 22.96 0 25 0 C25 8.91 25 17.82 25 27 C22.69 27 20.38 27 18 27 C18 23.37 18 19.74 18 16 C14.04 16 10.08 16 6 16 C6 19.63 6 23.26 6 27 C4.02 27 2.04 27 0 27 C0 18.09 0 9.18 0 0 Z " fill="#080808" transform="translate(398,524)"/>
<path d="M0 0 C2.31 0 4.62 0 7 0 C7.33 6.93 7.66 13.86 8 21 C10.64 21 13.28 21 16 21 C18.0140956 17.9788566 18.26836596 17.19339983 18.4140625 13.76953125 C18.45273437 12.96708984 18.49140625 12.16464844 18.53125 11.33789062 C18.57765625 10.08782227 18.57765625 10.08782227 18.625 8.8125 C18.66367187 7.96751953 18.70234375 7.12253906 18.7421875 6.25195312 C18.83636279 4.16832476 18.91926675 2.08419247 19 0 C20.98 0 22.96 0 25 0 C25.08115993 3.06303578 25.14057409 6.12390815 25.1875 9.1875 C25.21263672 10.05181641 25.23777344 10.91613281 25.26367188 11.80664062 C25.31985702 16.6947481 25.27688877 20.08982486 22 24 C18.9573561 26.93972148 16.7515071 27.43169 12.5625 27.4375 C8.89027339 27.32978135 7.20791312 27.11456437 3.9375 25.3125 C-0.41264275 20.12039413 -0.2577163 15.15486722 -0.125 8.6875 C-0.11597656 7.85154297 -0.10695313 7.01558594 -0.09765625 6.15429688 C-0.07420989 4.10274031 -0.03834266 2.05133223 0 0 Z " fill="#0C0C0C" transform="translate(442,524)"/>
<path d="M0 0 C1.54300781 -0.02513672 1.54300781 -0.02513672 3.1171875 -0.05078125 C6.4803662 0.35542085 8.3729883 1.38812281 11.125 3.3125 C10.465 4.6325 9.805 5.9525 9.125 7.3125 C6.125 7.3125 6.125 7.3125 4.125 6.3125 C-1.05586833 5.86300528 -1.05586833 5.86300528 -5.875 7.3125 C-7.50778358 10.57806715 -7.4977188 13.79555406 -6.875 17.3125 C-5.47814994 19.9594872 -5.47814994 19.9594872 -2.875 21.3125 C0.7925213 21.64667929 0.7925213 21.64667929 4.125 21.3125 C4.455 18.6725 4.785 16.0325 5.125 13.3125 C7.105 13.3125 9.085 13.3125 11.125 13.3125 C11.26013292 15.0812398 11.35705586 16.85293055 11.4375 18.625 C11.49550781 19.61113281 11.55351563 20.59726562 11.61328125 21.61328125 C11.125 24.3125 11.125 24.3125 8.98046875 26.14453125 C5.81430743 27.43958219 3.5365749 27.71360899 0.125 27.6875 C-0.885625 27.69523438 -1.89625 27.70296875 -2.9375 27.7109375 C-6.9977334 27.16021435 -9.68036486 25.78744059 -12.2734375 22.5859375 C-14.62500169 18.01449671 -15.41356716 14.47158716 -14.55859375 9.359375 C-12.35294267 2.75502548 -6.44532354 0.02410969 0 0 Z " fill="#5A5A5A" transform="translate(566.875,523.6875)"/>
<path d="M0 0 C1.70349609 0.03673828 1.70349609 0.03673828 3.44140625 0.07421875 C6.4375 0.3125 6.4375 0.3125 9.4375 1.3125 C9.1075 2.9625 8.7775 4.6125 8.4375 6.3125 C4.4775 6.3125 0.5175 6.3125 -3.5625 6.3125 C-3.5625 7.3025 -3.5625 8.2925 -3.5625 9.3125 C-2.88703125 9.48265625 -2.2115625 9.6528125 -1.515625 9.828125 C8.06553235 12.43109838 8.06553235 12.43109838 10.4375 16.3125 C11.16884328 22.26772388 11.16884328 22.26772388 9.125 25.1875 C5.68190719 27.48289521 2.51617385 27.47517816 -1.5 27.5 C-3.06041016 27.52126953 -3.06041016 27.52126953 -4.65234375 27.54296875 C-7.51296613 27.31642282 -9.13920151 26.78983619 -11.5625 25.3125 C-11.2325 23.6625 -10.9025 22.0125 -10.5625 20.3125 C-10.01078125 20.47621094 -9.4590625 20.63992188 -8.890625 20.80859375 C-6.29635993 21.37010414 -3.96414589 21.40989008 -1.3125 21.375 C0.02554687 21.36146484 0.02554687 21.36146484 1.390625 21.34765625 C2.06609375 21.33605469 2.7415625 21.32445312 3.4375 21.3125 C3.4375 20.3225 3.4375 19.3325 3.4375 18.3125 C2.59445312 18.04695312 1.75140625 17.78140625 0.8828125 17.5078125 C-0.21289062 17.15460937 -1.30859375 16.80140625 -2.4375 16.4375 C-4.07332031 15.91542969 -4.07332031 15.91542969 -5.7421875 15.3828125 C-8.5625 14.3125 -8.5625 14.3125 -10.5625 12.3125 C-11.24505061 5.259477 -11.24505061 5.259477 -8.94921875 2.07421875 C-5.80355873 -0.24770051 -3.87100392 -0.1277123 0 0 Z " fill="#0B0B0B" transform="translate(369.5625,523.6875)"/>
<path d="M0 0 C5.28 0 10.56 0 16 0 C16.13510502 3.56377018 16.23417099 7.12241117 16.3125 10.6875 C16.35439453 11.69490234 16.39628906 12.70230469 16.43945312 13.74023438 C16.56235248 21.18793506 16.56235248 21.18793506 13.80078125 25.17578125 C10.80964542 27.12398269 9.39839643 27.62929895 5.875 27.5 C4.60269531 27.48453125 4.60269531 27.48453125 3.3046875 27.46875 C0.62485267 26.92369885 -0.29920778 26.08986233 -2 24 C-1.34 22.68 -0.68 21.36 0 20 C4.455 20.99 4.455 20.99 9 22 C9.33 16.39 9.66 10.78 10 5 C6.7 5 3.4 5 0 5 C0 3.35 0 1.7 0 0 Z " fill="#070707" transform="translate(278,524)"/>
<path d="M0 0 C2.9375 1.4375 2.9375 1.4375 5 4 C5.71014629 7.14658314 5.71014629 9.85341686 5 13 C2.30969326 16.34250232 0.65937244 16.89588856 -3.5625 17.5625 C-7 17 -7 17 -9.4375 15 C-11.59775838 10.8523039 -11.59107389 8.65470688 -11 4 C-8.1553332 -0.55146687 -5.11689336 -0.71816047 0 0 Z " fill="#F5F5F5" transform="translate(330,529)"/>
<path d="M0 0 C2.9375 1.4375 2.9375 1.4375 5 4 C5.70993955 7.14566713 5.71555259 9.85503094 5 13 C2.46228253 16.06018871 0.88265681 16.83450185 -3 17.5625 C-7.17033126 16.78056289 -8.55871269 15.44652326 -11 12 C-11.89291241 8.07894985 -11.6077527 4.97240433 -9.4375 1.5 C-6.03618625 -0.59311615 -3.92927257 -0.55147685 0 0 Z " fill="#F7F7F7" transform="translate(776,529)"/>
<path d="M0 0 C1.98 0 3.96 0 6 0 C6 8.91 6 17.82 6 27 C4.02 27 2.04 27 0 27 C0 18.09 0 9.18 0 0 Z " fill="#545454" transform="translate(691,524)"/>
<path d="M0 0 C3.10551666 3.10551666 3.81323934 4.89198233 5 9 C2.36 9 -0.28 9 -3 9 C-2.01 6.03 -1.02 3.06 0 0 Z " fill="#EDEDED" transform="translate(608,531)"/>
<path d="M0 0 C2.50298434 2.93828597 3.46930939 5.17902761 4 9 C1.69 9 -0.62 9 -3 9 C-2.5020163 5.26512223 -2.12508244 3.18762365 0 0 Z " fill="#F0F0F0" transform="translate(728,531)"/>
<path d="M0 0 C2.50298434 2.93828597 3.46930939 5.17902761 4 9 C1.69 9 -0.62 9 -3 9 C-2.5020163 5.26512223 -2.12508244 3.18762365 0 0 Z " fill="#ECECEC" transform="translate(498,531)"/>
</svg>
